PathFileType	4	(X/Y/Z)	C:\Users\wzy\Desktop\s001_20220513_walk_1_markers.trc
DataRate	CameraRate	NumFrames	NumMarkers	Units	OrigDataRate	OrigDataStartFrame	OrigNumFrames
250.000000	250.000000	4	99	mm	250.000000	539	1078
Frame#	Time	QTMMod_head_top			QTMMod_head_l_ant			QTMMod_head_r_ant			QTMMod_head_r_post			QTMMod_head_l_post			QTMMod_trunk_l_acro			QTMMod_trunk_r_acro			QTMMod_trunk_manu			QTMMod_trunk_xyph			QTMMod_trunk_abdl			QTMMod_trunk_c7			QTMMod_trunk_t8			QTMMod_trunk_t12			QTMMod_l_sho_ant			QTMMod_l_sho_post			QTMMod_l_bicep			QTMMod_l_tricep			QTMMod_l_elb_lat			QTMMod_l_elb_med			QTMMod_l_farm_ant			QTMMod_l_farm_post			QTMMod_l_wri_lat			QTMMod_l_wri_med			QTMMod_l_hand			QTMMod_l_thmb			QTMMod_r_sho_ant			QTMMod_r_sho_post			QTMMod_r_bicep			QTMMod_r_tricep			QTMMod_r_elb_lat			QTMMod_r_elb_med			QTMMod_r_farm_ant			QTMMod_r_farm_post			QTMMod_r_wri_lat			QTMMod_r_wri_med			QTMMod_r_hand			QTMMod_r_thmb			QTMMod_pelvis_l_asis			QTMMod_pelvis_r_asis			QTMMod_pelvis_r			QTMMod_pelvis_r_ilcr			QTMMod_pelvis_r_psis			QTMMod_pelvis_sac			QTMMod_pelvis_l_psis			QTMMod_pelvis_l_ilcr			QTMMod_pelvis_l			QTMMod_l_hip_grtr			QTMMod_l_thigh_antprox			QTMMod_l_thigh_postprox			QTMMod_l_thigh_postdist			QTMMod_l_thigh_antdist			QTMMod_l_thigh_ant			QTMMod_l_thigh_med			QTMMod_l_thigh_pos			QTMMod_l_knee_lat			QTMMod_l_knee_med			QTMMod_l_shank_antprox			QTMMod_l_shank_postprox			QTMMod_l_shank_postdist			QTMMod_l_shank_antdist			QTMMod_l_shank_med			QTMMod_l_ank_lat			QTMMod_l_ank_med			QTMMod_l_foot_heel			QTMMod_l_foot_lat			QTMMod_l_foot_m5			QTMMod_l_foot_m2			QTMMod_l_foot_toe			QTMMod_l_foot_m1			QTMMod_l_foot_med			QTMMod_l_foot_navi			QTMMod_r_hip_grtr			QTMMod_r_thigh_antprox			QTMMod_r_thigh_postprox			QTMMod_r_thigh_postdist			QTMMod_r_thigh_antdist			QTMMod_r_thigh_ant			QTMMod_r_thigh_med			QTMMod_r_thigh_pos			QTMMod_r_knee_lat			QTMMod_r_knee_med			QTMMod_r_shank_antprox			QTMMod_r_shank_postprox			QTMMod_r_shank_postdist			QTMMod_r_shank_antdist			QTMMod_r_shank_med			QTMMod_r_ank_lat			QTMMod_r_ank_med			QTMMod_r_foot_heel			QTMMod_r_foot_lat			QTMMod_r_foot_m5			QTMMod_r_foot_m2			QTMMod_r_foot_toe			QTMMod_r_foot_m1			QTMMod_r_foot_med			QTMMod_r_foot_navi			QTMMod_head_l			QTMMod_head_r			QTMMod_head_front			
		X1	Y1	Z1	X2	Y2	Z2	X3	Y3	Z3	X4	Y4	Z4	X5	Y5	Z5	X6	Y6	Z6	X7	Y7	Z7	X8	Y8	Z8	X9	Y9	Z9	X10	Y10	Z10	X11	Y11	Z11	X12	Y12	Z12	X13	Y13	Z13	X14	Y14	Z14	X15	Y15	Z15	X16	Y16	Z16	X17	Y17	Z17	X18	Y18	Z18	X19	Y19	Z19	X20	Y20	Z20	X21	Y21	Z21	X22	Y22	Z22	X23	Y23	Z23	X24	Y24	Z24	X25	Y25	Z25	X26	Y26	Z26	X27	Y27	Z27	X28	Y28	Z28	X29	Y29	Z29	X30	Y30	Z30	X31	Y31	Z31	X32	Y32	Z32	X33	Y33	Z33	X34	Y34	Z34	X35	Y35	Z35	X36	Y36	Z36	X37	Y37	Z37	X38	Y38	Z38	X39	Y39	Z39	X40	Y40	Z40	X41	Y41	Z41	X42	Y42	Z42	X43	Y43	Z43	X44	Y44	Z44	X45	Y45	Z45	X46	Y46	Z46	X47	Y47	Z47	X48	Y48	Z48	X49	Y49	Z49	X50	Y50	Z50	X51	Y51	Z51	X52	Y52	Z52	X53	Y53	Z53	X54	Y54	Z54	X55	Y55	Z55	X56	Y56	Z56	X57	Y57	Z57	X58	Y58	Z58	X59	Y59	Z59	X60	Y60	Z60	X61	Y61	Z61	X62	Y62	Z62	X63	Y63	Z63	X64	Y64	Z64	X65	Y65	Z65	X66	Y66	Z66	X67	Y67	Z67	X68	Y68	Z68	X69	Y69	Z69	X70	Y70	Z70	X71	Y71	Z71	X72	Y72	Z72	X73	Y73	Z73	X74	Y74	Z74	X75	Y75	Z75	X76	Y76	Z76	X77	Y77	Z77	X78	Y78	Z78	X79	Y79	Z79	X80	Y80	Z80	X81	Y81	Z81	X82	Y82	Z82	X83	Y83	Z83	X84	Y84	Z84	X85	Y85	Z85	X86	Y86	Z86	X87	Y87	Z87	X88	Y88	Z88	X89	Y89	Z89	X90	Y90	Z90	X91	Y91	Z91	X92	Y92	Z92	X93	Y93	Z93	X94	Y94	Z94	X95	Y95	Z95	X96	Y96	Z96	X97	Y97	Z97	X98	Y98	Z98	X99	Y99	Z99	

540	2.156	694.8551025390624	1641.708618164062	-204.2356872558594	769.4880981445311	1557.114990234375	-290.9079589843751	765.1569824218749	1557.584838867188	-125.9480819702149	669.2230834960936	1527.250854492188	-132.8555450439453	658.0341186523436	1519.06787109375	-286.4272766113282	731.3296508789061	1370.442016601562	-377.7251281738282	716.5680541992186	1345.671264648438	-60.8289070129395	775.6697998046874	1317.154907226562	-219.6970367431641	831.8322143554686	1099.305419921875	-220.4436035156251	863.0206298828124	965.6589965820312	-229.9338989257813	657.2332763671874	1397.3740234375	-219.3778076171875	591.2964477539061	1191.88671875	-243.4808959960938	602.0556640624999	1096.167724609375	-237.1888580322266	770.5267944335936	1313.009765625	-366.2578430175782	658.3685913085936	1341.353759765625	-389.6997375488282	770.9771118164061	1164.730834960938	-419.9416198730469	659.2648315429686	1165.767578125	-421.5287780761719	748.5366210937499	1050.154907226562	-477.2839355468751	701.8056640624999	1026.979858398438	-396.2306823730469	759.3749389648436	936.6650390625	-412.8662109375001	756.1301879882811	948.5794067382812	-494.5687866210938	820.7340087890625	816.0162963867188	-445.3515014648438	785.7769165039062	816.6911010742188	-505.1582641601563	824.3285522460938	764.8987426757812	-498.8434448242188	834.4924926757812	769.2659912109375	-442.8850402832032	766.2429199218749	1292.657470703125	-72.33223724365239	638.0133666992186	1313.638916015625	-68.27239990234379	724.3275756835936	1146.364379882812	-11.47417163848881	621.7464599609374	1152.855102539062	-41.70640563964847	662.9345703124999	1033.089477539062	55.11977386474605	647.6416625976561	1010.521911621094	-43.03822326660161	682.4035644531249	938.7235717773438	3.510715961456257	628.9433593749999	965.3522338867188	66.07305145263668	681.1751708984375	792.2733764648438	62.24320220947261	611.985107421875	799.46923828125	86.89186096191402	634.6410522460938	740.2302856445312	106.4847869873046	681.3815307617188	738.4931640625	78.91258239746089	805.9963989257811	947.877685546875	-342.9872131347657	805.5595703124999	967.94677734375	-111.8283615112305	700.6352539062499	991.4343872070312	-56.16829299926762	700.6204223632811	1011.945007324219	-57.2833518981934	599.4533691406249	995.96435546875	-167.7700500488282	596.3192749023436	991.9996948242188	-221.0424346923828	603.4093017578124	994.180419921875	-271.7518920898438	724.8215332031249	1003.298583984375	-392.0828247070313	729.2863769531249	950.5399780273438	-397.2536315917969	712.21533203125	907.8992309570312	-412.5828247070313	728.4253540039062	603.6140747070312	-386.1514892578126	657.8869018554688	610.88671875	-375.5935058593751	655.2872924804688	513.4826049804688	-359.1449584960938	727.2708740234375	511.2418518066407	-365.9729614257813	765.287109375	488.0246887207032	-306.1030578613282	756.431640625	563.9767456054688	-235.8472442626954	614.0908203125	571.5411376953125	-289.9199523925782	688.20751953125	441.0561218261719	-350.4086303710938	691.667724609375	433.6336059570313	-242.1612548828125	569.1484985351562	342.5393981933594	-364.7085571289063	526.1795043945312	403.3592834472657	-366.5963439941407	466.6093139648438	360.5126953125001	-356.2773132324219	509.3050842285156	298.9818115234376	-360.1194458007813	541.3497924804688	312.2717590332032	-247.5472106933594	339.7463073730469	185.1212768554688	-326.8827819824219	350.1272888183594	195.9255065917969	-241.8462829589844	284.1911926269531	230.7236328125	-289.0651245117188	325.3992919921875	113.8436126708985	-319.2763366699219	346.9287109375	59.26969146728518	-314.1470031738281	383.356689453125	57.2319030761719	-247.5945587158203	413.1350708007812	34.08259582519534	-261.3040466308594	360.4129638671875	77.56323242187503	-217.5151824951172	335.7828369140625	124.879768371582	-226.770980834961	388.5577392578125	134.5529479980469	-277.3262634277344	743.3632812499999	949.8772583007812	-43.06815719604496	884.775390625	685.3121337890625	-82.53175354003912	821.9769897460938	662.4933471679688	-53.67066574096685	849.419921875	570.598388671875	-80.94259643554693	912.0670776367188	591.9061279296875	-106.3877639770508	931.943359375	570.6394042968751	-182.6214752197266	869.928955078125	653.0652465820312	-219.8382263183594	744.4337158203125	596.4178466796875	-124.6407470703125	906.6038818359375	505.4953613281251	-127.3120422363282	900.457275390625	504.5623168945313	-218.3772277832032	927.3359985351562	375.4974670410157	-116.132423400879	856.1983032226562	375.1955566406251	-95.41400146484381	858.713623046875	299.6287231445313	-98.49836730957037	927.08642578125	299.1560668945313	-119.7175750732422	917.4244384765625	342.0346374511719	-218.8529815673829	903.9473876953125	83.3999862670899	-146.2386627197266	914.0523071289062	97.56732177734381	-232.9092254638672	844.1224975585938	59.53391647338872	-186.3425292968751	972.139892578125	52.00981903076178	-147.0284423828126	1030.567260742188	37.1975059509278	-137.2803039550782	1059.871948242188	58.53923797607428	-210.4629211425782	1112.449340820312	56.82047271728523	-211.2091369628907	1052.094604492188	28.88002014160163	-248.0743865966797	975.6270751953125	52.79984664916998	-240.2132568359376	981.728515625	108.8096466064454	-193.9947509765626	713.7611083984374	1538.091430664062	-288.6676025390626	717.1900024414061	1542.417846679688	-129.4018096923829	767.3225708007811	1557.349853515625	-208.4280090332032	
541	2.16	699.5382080078124	1642.435424804688	-203.4183807373047	774.1123046874999	1558.054809570312	-290.3130798339844	770.0977783203124	1558.218627929688	-125.3732070922852	674.1345214843749	1527.883544921875	-132.1129760742188	662.5735473632811	1519.824829101562	-285.7294311523438	736.2481689453124	1371.295776367188	-377.1935119628907	721.7931518554686	1346.54248046875	-60.38228225708012	780.6448974609374	1317.927490234375	-219.2898101806641	836.7027587890624	1100.17236328125	-219.9337615966797	867.7247924804686	966.7393188476562	-229.1764373779297	662.1235351562499	1398.049194335938	-218.783203125	596.2162475585936	1192.645141601562	-243.1658477783203	606.9617309570311	1096.949096679688	-236.9594268798828	775.4765014648436	1313.9677734375	-365.6616516113282	663.2864379882811	1342.35693359375	-389.3165283203126	775.2902832031249	1165.587036132812	-419.7653503417969	663.8027343749999	1167.287841796875	-420.7741394042969	752.2943725585936	1051.026977539062	-477.1105651855469	705.6797485351561	1027.950927734375	-395.9635620117188	760.2021484374999	936.7586669921875	-413.4502868652344	759.3087158203124	949.4696044921875	-494.4345397949219	822.9655151367188	816.2118530273438	-446.0410461425782	787.770751953125	817.4418334960938	-505.3997802734376	825.8187255859375	765.19384765625	-499.5550537109376	836.4030151367188	769.2378540039062	-443.5514526367188	771.5925292968749	1293.516845703125	-71.97693634033207	643.3167114257811	1314.317016601562	-67.65627288818364	730.4624023437499	1147.065795898438	-11.22721290588383	627.2424316406249	1153.345581054688	-40.98135375976566	669.4014282226561	1033.39208984375	55.39932250976558	654.1168823242186	1011.017883300781	-42.63175582885746	689.4129638671874	939.3750610351562	3.535265445709186	636.1665039062499	965.62060546875	66.52406311035152	689.3408203125	792.8582763671875	62.23289871215816	620.2871704101562	799.505126953125	86.97541046142574	643.3047485351562	740.5116577148438	106.8268966674804	689.8956909179688	739.0414428710938	78.81250762939449	810.9054565429686	948.519775390625	-342.2807617187501	810.3600463867186	969.1471557617188	-111.1251449584961	705.2653808593749	992.4088134765625	-55.90158081054692	705.0678100585936	1012.745483398438	-57.03071594238286	604.4278564453124	996.4100341796875	-167.9219512939453	601.0192871093749	992.4998168945312	-221.2965698242188	608.4134521484374	994.4801025390625	-271.9322204589844	729.3228759765624	1003.528503417969	-391.6227416992188	734.6047973632811	950.7735595703125	-396.8859863281251	717.7615966796875	908.027587890625	-412.1209411621094	738.5408935546875	603.8993530273438	-386.0914916992188	668.36181640625	608.8359985351562	-374.9951171875001	665.03369140625	512.2593994140625	-359.9244995117188	737.0322265625	510.9528503417969	-366.6934204101563	775.591064453125	488.0534362792969	-307.2962036132813	765.7431030273438	563.7113037109375	-236.2699432373047	623.2831420898438	569.495849609375	-290.1730957031251	698.2312622070312	440.5350341796876	-351.1104125976563	702.8726806640625	432.8597106933594	-243.5458068847657	578.518798828125	342.6558837890626	-365.3066406250001	536.0571899414062	404.1758117675782	-366.7796020507813	476.1373901367188	362.0087280273438	-356.4269104003907	517.5162963867188	300.5029296875001	-361.2657775878907	550.7717895507812	312.3742065429688	-248.2509002685547	347.3316955566406	189.0033874511719	-327.4722290039062	357.8450622558594	199.2866973876953	-242.2143707275391	293.1270446777344	236.1866912841797	-289.7666931152344	330.7751159667969	118.5868530273438	-319.6333923339844	350.2391967773438	62.27062606811526	-314.4835205078125	386.7268981933594	58.81600189208987	-248.1602935791016	415.035400390625	33.55321121215823	-261.6898193359375	364.2624816894531	80.86441802978518	-218.2233428955078	341.0166015625	129.0684967041016	-227.397201538086	394.1152648925781	137.2520904541016	-277.7255249023438	747.8916015624999	950.91552734375	-42.61352920532231	889.0330810546875	685.4404296875	-82.07599639892584	826.868896484375	662.869873046875	-53.25907897949224	852.989013671875	570.9722290039062	-80.39350891113287	915.816162109375	591.9407348632812	-105.872787475586	935.7527465820312	570.6803588867189	-182.0527954101563	874.28564453125	653.5420532226562	-219.6465301513672	748.223388671875	597.36767578125	-124.3384780883789	909.80419921875	505.5551147460938	-126.9090423583985	904.5055541992188	504.6962890625001	-218.1998748779297	929.529541015625	375.2799987792969	-115.9011154174805	858.6926879882812	375.5014648437501	-95.25806427001959	860.44091796875	299.9573364257813	-98.37174224853521	928.7618408203125	298.8164672851563	-119.5819168090821	919.0745849609375	341.6857604980469	-218.7093505859376	904.06396484375	83.62188720703131	-145.8373107910157	914.1890869140625	97.58123016357428	-232.8640594482422	844.1514892578125	59.5652351379395	-186.3296508789063	972.1751098632812	51.96942138671881	-147.0547790527344	1030.602416992188	37.08430862426764	-137.2085876464844	1059.920043945312	58.26211929321295	-210.5158843994141	1112.525390625	56.48376846313484	-211.2728118896485	1052.155029296875	28.61446189880377	-248.1324615478516	975.6998291015625	52.70165634155279	-240.2887573242188	981.9166259765625	108.6985778808594	-193.9451751708985	718.3429565429686	1538.939819335938	-288.0212402343751	722.1161499023436	1543.051025390625	-128.7430877685547	772.1050415039061	1558.13671875	-207.8431396484376	
542	2.164	704.2802734374999	1643.162719726562	-202.6677246093751	778.8194580078124	1558.847534179688	-289.7501831054688	774.9886474609374	1558.934326171875	-124.7505111694336	679.0419311523436	1528.48046875	-131.3626098632813	667.3408203124999	1520.61181640625	-284.9555358886719	741.0636596679686	1372.273315429688	-376.7065429687501	727.0293579101561	1347.273803710938	-59.98583221435551	785.5168457031249	1318.727661132812	-218.8864440917969	841.1878662109374	1101.17138671875	-219.7196044921876	872.3712768554686	967.8660888671875	-228.4352111816407	666.3395996093749	1398.550415039062	-218.2589416503907	601.1272583007811	1193.463256835938	-242.7620849609375	611.8732910156249	1097.796875	-236.7669677734375	780.1322021484374	1314.910034179688	-365.2062988281251	668.0996093749999	1343.504150390625	-388.8159790039063	779.7251586914061	1166.48193359375	-419.6595458984376	668.3980102539061	1168.784790039062	-420.1338500976563	755.9590454101561	1051.932495117188	-476.9688110351563	708.3160400390624	1028.80517578125	-395.8829345703126	763.3490600585936	937.4854736328125	-413.4111633300782	762.4309082031249	950.4247436523438	-494.4136657714844	825.1737060546875	816.5225830078125	-446.4736633300782	789.816162109375	818.1839599609375	-505.7080993652344	827.5045776367188	765.6006469726562	-500.1999206542969	838.3274536132812	769.3104858398438	-444.2078552246094	776.8052368164061	1294.419189453125	-71.74969482421879	648.6452636718749	1314.987060546875	-67.01105499267582	736.5217285156249	1147.844970703125	-11.08260250091557	633.2120971679686	1153.80078125	-39.91230392456058	676.0546264648436	1033.8916015625	55.66432571411129	660.6005249023436	1011.560180664062	-42.31431579589848	696.4990234374999	940.0791625976562	3.590460300445514	643.2382202148436	965.8719482421875	66.80461120605464	697.6030883789062	793.4325561523438	62.11695098876949	628.3695068359375	799.4215087890625	87.00711822509761	652.1009521484375	740.6994018554688	106.8929672241211	698.5311279296875	739.5528564453125	78.69461059570308	815.8068847656249	949.0799560546875	-341.5696105957032	815.0767211914061	970.2841186523438	-110.4872436523438	709.8193359374999	993.3358154296875	-55.68341064453129	709.9650878906249	1013.828369140625	-56.61532592773442	609.0093994140624	997.2807006835938	-168.4783630371094	605.9833374023436	992.9190673828125	-221.6015014648438	613.2789916992186	994.654541015625	-272.1514587402344	733.3439941406249	1003.778625488281	-391.6044006347657	740.6762084960936	951.2288208007812	-396.4465026855469	723.0490112304688	908.127197265625	-411.7260742187501	746.9437866210938	603.6067504882812	-386.9120178222657	677.4781494140625	607.5703125	-375.2247619628907	674.91943359375	511.0813293457032	-360.8853759765626	746.8073120117188	510.7665100097657	-367.4179382324219	785.8726196289062	488.2236328125001	-308.2925720214844	775.138671875	563.5185546875	-236.7450561523438	632.6008911132812	567.518310546875	-291.1644897460938	708.386474609375	440.1882019042969	-351.8034057617188	714.137939453125	432.1529846191407	-244.3605651855469	587.8807983398438	343.1340637207032	-366.1162109375001	546.1898803710938	405.1535339355469	-367.0928955078126	485.7521362304688	363.5817565917969	-356.5713806152344	526.4030151367188	301.6494750976563	-362.0052490234376	560.1862182617188	312.6247558593751	-248.7879943847657	354.8591918945312	192.716537475586	-327.7109069824219	365.902099609375	202.6603240966797	-242.4303588867188	302.357421875	241.7733001708985	-290.198974609375	336.0111694335938	122.9766235351563	-319.9028930664062	353.8311767578125	65.41822814941409	-315.0497436523438	390.3627014160156	60.51196289062502	-248.6294555664063	417.1248474121094	32.94269561767581	-262.1991577148438	368.9071044921875	84.2526779174805	-218.7047424316407	346.3850402832031	133.2177276611328	-228.0394744873047	400.4172973632812	139.7379760742188	-278.4037170410156	752.4456787109374	951.8953857421875	-42.15771484375004	893.0889282226562	685.4948120117188	-81.45009613037115	830.858154296875	663.3309326171875	-52.91345214843755	856.3021240234375	571.1553955078125	-79.96835327148443	919.3761596679688	591.7963256835938	-105.4172439575196	939.4088745117188	570.2294921875001	-181.2335205078126	878.593505859375	653.9207763671875	-219.1499633789063	752.577880859375	597.7150268554688	-124.0729446411133	912.8096923828125	505.5056152343751	-126.4591674804688	908.3967895507812	504.3986511230469	-217.6916503906251	931.8923950195312	374.9653320312501	-115.7642288208008	861.0037231445312	375.8029479980469	-95.14448547363287	862.0272216796875	300.3227233886719	-98.07783508300787	930.3177490234375	298.3879394531251	-119.3470535278321	920.8455810546875	341.3756103515626	-218.4967041015626	904.181884765625	83.67404937744146	-145.8311614990235	914.1580810546875	97.55516052246099	-232.7425537109376	844.1660766601562	59.56973266601567	-186.3055267333985	972.2517700195312	51.91323471069342	-147.0774078369141	1030.670288085938	37.01979064941413	-137.1999206542969	1060.014892578125	58.04457473754889	-210.5377044677735	1112.598022460938	56.19744110107429	-211.2695922851563	1052.113159179688	28.37508201599127	-248.0532531738282	975.6966552734375	52.63579940795904	-240.3565216064454	982.1100463867188	108.6521072387696	-194.0144042968751	723.0801391601561	1539.729736328125	-287.3528747558594	727.0152587890624	1543.707397460938	-128.0565643310547	776.9040527343749	1558.890991210938	-207.2503509521485	
543	2.168	709.0610961914061	1643.919311523438	-201.8191833496094	783.4273681640624	1559.787841796875	-289.1279602050782	779.8651733398436	1559.4794921875	-123.9578018188477	684.1881713867186	1528.980346679688	-130.6370239257813	671.9705200195311	1521.468017578125	-284.2820129394532	745.8565673828124	1373.147216796875	-376.1275939941407	732.2060546874999	1348.10205078125	-59.65135955810551	790.3536376953124	1319.54638671875	-218.5426330566407	846.6635131835936	1102.170288085938	-219.0248107910157	877.0677490234374	968.8413696289062	-227.9023132324219	671.0358276367186	1399.330078125	-217.7940368652344	606.4839477539061	1193.897094726562	-242.3691558837891	616.7655029296874	1098.544067382812	-236.4095764160157	784.8416137695311	1315.791625976562	-364.7790832519532	672.9069213867186	1344.51220703125	-388.2962646484376	784.1950683593749	1167.347045898438	-419.0870056152344	672.8458862304686	1170.272705078125	-419.5463256835938	759.6378784179686	1052.862915039062	-476.8475341796876	712.1893310546874	1029.999633789062	-395.5860290527344	766.5607299804686	938.2496948242188	-413.4299316406251	765.5493774414061	951.3580322265625	-494.3964843750001	827.6404418945312	816.8549194335938	-446.6557312011719	791.7178955078125	818.8054809570312	-505.9617309570313	829.1864624023438	766.0057373046875	-500.8331909179688	840.1743774414062	769.3909912109375	-444.9217529296876	782.1636962890624	1295.30712890625	-71.44367980957036	653.9293823242186	1315.66943359375	-66.44767761230473	742.5903930664061	1148.557495117188	-10.96431255340581	638.8202514648436	1154.34716796875	-38.93864440917973	683.0744628906249	1034.393432617188	55.92482757568355	666.9799194335936	1012.117736816406	-42.01946640014653	703.5976562499999	940.8046264648438	3.695453166961627	650.4265747070311	966.0964965820312	67.11676025390621	705.8693237304688	794.0675659179688	62.01465988159175	636.7185668945312	799.566650390625	87.22521209716793	660.8294677734375	741.0584716796875	106.8405685424804	707.2388916015625	740.10107421875	78.41748046874996	820.6390991210936	949.6387939453125	-340.9517211914063	819.9371337890624	971.3526000976562	-109.7135620117188	714.3621215820311	994.1678466796875	-55.42173004150395	714.2606811523436	1014.523559570312	-56.31099700927739	614.0841064453124	997.922607421875	-168.5478057861328	610.7968749999999	993.268798828125	-221.7206573486328	618.3658447265624	995.0093383789062	-272.0633239746094	738.3328857421874	1004.306396484375	-391.1119995117188	745.8491821289061	951.4517211914062	-396.1624450683594	728.3826904296875	908.112548828125	-411.3793640136719	755.0402221679688	603.8410034179688	-387.9619750976563	686.0320434570312	606.5841674804688	-375.9122924804688	684.5806884765625	510.0199279785157	-361.6310424804688	756.4880981445312	510.8120117187501	-368.2181701660157	796.144287109375	488.6380920410157	-309.0256958007813	784.3320922851562	563.5780639648438	-236.9669189453126	641.7188110351562	565.4473876953125	-291.2568359375001	718.5253295898438	439.8991699218751	-352.3251953125001	725.9296875	432.0176696777344	-245.8385162353516	597.22998046875	343.9091186523438	-367.2775268554688	556.4038696289062	406.1908569335938	-367.3535766601563	495.5805358886719	365.2873535156251	-356.7609558105469	535.4396362304688	302.9307861328126	-362.6647644042969	569.75341796875	312.8687744140626	-249.4677124023438	362.5386657714844	196.4945983886719	-328.2176513671875	374.2505493164062	206.1137390136719	-242.6121063232422	311.8875122070312	247.1576843261719	-290.7988891601562	341.8974304199219	127.7994918823242	-320.0617065429688	357.5982055664062	68.56838226318362	-315.3046569824219	394.3602600097656	62.18671035766604	-249.2896881103516	419.2818603515625	32.17639923095706	-262.4872741699219	373.7078247070312	87.42677307128909	-219.5752410888672	352.1338195800781	138.1919555664063	-228.1080932617188	406.9978332519531	142.3183288574219	-278.9755249023438	757.0323486328124	952.8201293945312	-41.70661926269536	897.0287475585938	685.2744750976562	-80.84078979492193	833.4973754882812	663.7037963867188	-52.62481307983403	859.7142333984375	571.0380859375	-79.54629516601568	922.6995849609375	591.4776000976562	-104.6546783447266	942.9613037109375	569.9396362304689	-180.5795440673829	882.9194946289062	654.1591186523438	-218.5912475585938	756.0874633789062	598.7626953125	-124.0575714111329	915.7156982421875	505.2553710937501	-125.8567657470704	912.0213623046875	504.3791503906251	-216.9473114013672	934.0564575195312	374.6029968261719	-115.6612930297852	863.1825561523438	376.0870056152344	-94.94858551025396	863.5950317382812	300.6164245605469	-97.86236572265631	931.8638916015625	298.1048583984376	-119.2207489013672	922.5498657226562	341.2572937011719	-218.2068481445313	904.27685546875	83.68714904785162	-145.9682617187501	914.2765502929688	97.63110351562506	-232.7139739990235	844.2025146484375	59.57791519165044	-186.2829284667969	972.2650146484375	51.91991043090826	-147.0801696777344	1030.7119140625	36.92888259887702	-137.1497650146485	1060.085815429688	57.9157791137696	-210.6155395507813	1112.625610351562	55.95836257934577	-211.2873992919922	1052.175048828125	28.22250556945807	-248.0549011230469	975.7626342773438	52.60430526733404	-240.3376007080079	982.5952758789062	108.7132873535157	-193.9179840087891	727.6989746093749	1540.6279296875	-286.7049865722657	732.0266723632811	1544.229858398438	-127.2974166870118	781.6462402343749	1559.633666992188	-206.5428771972657	
